<?xml version="1.0" standalone="no"?>
<!DOCTYPE svg PUBLIC "-//W3C//DTD SVG 20010904//EN"
 "http://www.w3.org/TR/2001/REC-SVG-20010904/DTD/svg10.dtd">
<svg version="1.0" xmlns="http://www.w3.org/2000/svg"
 width="391.000000pt" height="391.000000pt" viewBox="0 0 391.000000 391.000000"
 preserveAspectRatio="xMidYMid meet">
<metadata>
Created by potrace 1.14, written by Peter Selinger 2001-2017
</metadata>
<g transform="translate(0.000000,391.000000) scale(0.100000,-0.100000)"
fill="#000000" stroke="none">
<path d="M1927 3874 c-3 -4 -19 -7 -34 -9 -50 -5 -129 -39 -141 -61 -5 -9 -13
-16 -18 -16 -5 0 -35 -24 -66 -54 -31 -30 -55 -54 -53 -54 2 0 -10 -15 -26
-32 -16 -18 -49 -59 -72 -90 -23 -32 -45 -58 -50 -58 -4 0 -6 -4 -3 -9 3 -4
-3 -16 -14 -26 -11 -10 -20 -24 -20 -31 0 -7 -6 -19 -14 -26 -7 -8 -23 -33
-35 -55 -34 -68 -45 -65 -36 8 5 35 9 83 9 107 1 23 5 42 9 42 4 0 3 9 -3 19
-15 29 -12 86 6 118 21 36 13 86 -19 127 -21 26 -30 29 -96 32 -40 2 -76 5
-78 8 -5 4 -22 -1 -98 -30 -11 -4 -23 -6 -27 -6 -5 1 -8 -3 -8 -8 0 -6 -6 -10
-13 -10 -35 0 -149 -164 -227 -325 -47 -97 -115 -270 -122 -310 -1 -11 -5 -22
-8 -25 -6 -5 -68 -217 -75 -255 -2 -11 -11 -47 -20 -80 -10 -33 -19 -67 -21
-75 -2 -8 -11 -42 -19 -75 -9 -33 -18 -67 -20 -75 -2 -8 -4 -17 -5 -20 -1 -3
-2 -9 -1 -14 1 -4 -4 -14 -10 -22 -6 -8 -9 -14 -6 -14 4 0 1 -18 -19 -95 -2
-11 -6 -42 -8 -69 -3 -26 -8 -52 -13 -57 -11 -11 -5 -69 7 -69 4 0 10 -9 13
-20 3 -11 13 -20 22 -20 9 0 13 -4 10 -10 -3 -5 2 -10 12 -10 11 0 23 -4 28
-9 13 -12 125 -24 125 -13 0 5 13 7 29 4 19 -2 50 6 86 23 44 20 62 36 83 72
15 26 34 54 42 62 8 9 14 24 12 34 -2 9 2 17 9 17 7 0 9 3 6 7 -4 3 -3 11 2
17 11 14 46 118 43 129 -1 4 2 7 6 7 5 0 8 16 7 35 0 19 2 35 6 35 4 0 9 14
13 30 3 17 9 30 14 30 5 0 19 -24 33 -52 18 -39 33 -57 59 -70 19 -9 36 -12
38 -8 2 5 13 5 26 0 13 -5 29 -4 37 1 8 5 25 9 39 9 45 1 180 102 180 134 0 8
7 17 16 20 18 7 16 -22 -11 -119 -9 -33 -19 -78 -21 -100 -9 -75 -22 -180 -24
-190 -1 -5 -1 -13 0 -17 1 -5 3 -12 4 -16 2 -12 28 -37 54 -51 36 -19 112 -40
116 -32 3 4 24 8 46 9 49 3 119 34 148 65 18 19 78 168 87 218 7 33 37 144 45
164 5 11 14 49 21 85 6 36 16 72 20 81 4 8 10 33 13 55 5 37 9 59 20 114 22
103 28 130 33 165 3 22 6 46 6 53 0 6 3 12 6 12 3 0 6 10 7 23 2 39 12 109 33
221 11 60 18 113 15 118 -3 4 0 8 6 8 6 0 9 4 6 8 -3 5 1 49 9 98 29 174 17
219 -67 249 -27 9 -52 15 -55 12 -3 -4 -13 -2 -23 3 -10 5 -20 7 -23 4z"/>
<path d="M3020 3853 c0 -4 -24 -9 -53 -10 -52 -3 -143 -20 -162 -32 -5 -3 -16
-6 -23 -7 -7 -1 -43 -17 -80 -35 -37 -18 -69 -33 -72 -33 -19 -4 -190 -136
-177 -136 2 0 -22 -27 -55 -60 -32 -33 -55 -60 -51 -60 4 0 -5 -12 -19 -27
-29 -32 -97 -132 -123 -183 -30 -59 -51 -104 -66 -137 -8 -18 -18 -33 -22 -33
-5 0 -6 -4 -2 -10 3 -5 -1 -25 -9 -45 -8 -19 -12 -35 -9 -35 3 0 0 -7 -7 -15
-6 -8 -9 -19 -6 -24 4 -5 2 -12 -3 -15 -5 -3 -15 -39 -22 -79 -7 -39 -16 -77
-20 -82 -4 -6 -4 -16 0 -24 4 -7 4 -35 -1 -62 -10 -54 -7 -126 6 -147 4 -7 2
-12 -4 -12 -7 0 -8 -6 -1 -18 7 -13 6 -23 -1 -30 -9 -9 -9 -12 0 -12 7 0 12
-14 12 -34 0 -19 4 -37 9 -40 5 -3 7 -15 4 -26 -3 -11 0 -20 6 -20 5 0 8 -6 5
-14 -3 -8 0 -17 5 -21 6 -3 9 -11 6 -16 -4 -5 -2 -9 3 -9 6 0 12 -10 16 -23 7
-30 100 -119 153 -145 108 -56 297 -79 413 -51 25 6 54 13 65 14 11 2 32 8 48
14 62 25 72 29 81 29 5 0 12 4 15 9 3 4 26 19 51 32 25 13 66 44 93 69 37 37
47 53 47 79 0 21 -5 33 -13 33 -8 0 -22 9 -32 20 -11 12 -13 20 -6 20 9 0 9 5
1 20 -6 11 -7 20 -2 20 5 0 6 19 3 41 -8 55 -42 81 -116 87 -55 4 -70 1 -138
-35 -15 -8 -40 -21 -55 -29 -38 -19 -96 -17 -140 5 -35 18 -83 61 -68 61 3 0
-1 11 -10 25 -9 14 -13 25 -10 25 4 0 2 9 -4 20 -8 14 -8 20 0 20 8 0 8 6 0
20 -8 14 -8 20 0 20 7 0 8 6 1 19 -6 10 -8 21 -5 24 3 3 8 20 11 38 6 42 49
162 76 214 12 22 20 43 19 48 -1 4 3 7 8 7 6 0 10 7 10 16 0 8 5 12 10 9 6 -3
10 1 10 9 0 9 5 16 10 16 6 0 9 3 8 8 -3 14 14 42 22 37 5 -3 11 3 15 14 10
31 111 120 167 146 92 43 138 25 124 -49 -4 -17 -6 -38 -6 -46 0 -8 0 -25 0
-37 0 -12 5 -25 10 -28 5 -3 7 -11 5 -18 -3 -7 9 -22 26 -34 26 -17 43 -21 98
-19 36 1 76 5 87 8 43 12 120 57 146 85 56 58 98 194 98 314 0 131 -41 221
-129 282 -26 17 -50 32 -56 33 -5 1 -30 9 -54 18 -24 9 -59 16 -77 16 -20 0
-34 5 -34 12 0 9 -3 9 -12 0 -7 -7 -17 -8 -30 -1 -10 5 -18 6 -18 2z"/>
<path d="M2743 1845 c-18 -8 -33 -11 -33 -8 0 3 -7 0 -15 -7 -8 -7 -15 -10
-15 -6 0 3 -9 -2 -19 -11 -37 -34 -51 -44 -51 -37 0 4 -14 -8 -31 -27 -32 -36
-64 -89 -53 -89 4 0 2 -6 -4 -13 -6 -7 -13 -24 -15 -37 -2 -14 -6 -32 -10 -40
-3 -8 -24 -87 -47 -175 -43 -168 -98 -353 -108 -370 -4 -5 -7 -12 -8 -15 -5
-30 -26 -90 -32 -90 -4 0 -8 -8 -9 -17 -4 -57 -163 -382 -230 -471 -29 -38
-81 -74 -103 -69 -17 3 -33 87 -17 87 5 0 4 6 -2 13 -6 8 -8 16 -6 19 11 10
14 48 4 53 -5 4 -5 14 1 26 6 10 7 19 3 19 -4 0 -16 12 -26 28 -16 22 -27 28
-67 30 -27 2 -51 -2 -54 -7 -4 -6 -13 -8 -21 -5 -8 3 -22 0 -31 -8 -39 -31
-84 -80 -84 -93 0 -7 -5 -15 -11 -17 -5 -2 -11 -10 -13 -18 -2 -8 -8 -28 -14
-43 -17 -40 -15 -144 4 -206 16 -56 53 -105 95 -126 34 -18 179 -54 179 -44 0
4 12 4 27 0 61 -16 258 52 333 115 16 14 30 23 30 19 0 -3 23 16 50 43 28 27
50 47 50 43 0 -3 8 6 18 22 10 15 22 24 25 20 4 -3 7 1 7 11 0 9 5 14 10 11 6
-3 10 0 10 7 0 8 13 28 30 46 16 18 30 36 31 40 1 4 17 30 35 59 30 47 76 130
79 143 1 3 21 45 44 94 23 49 43 97 44 107 2 9 8 23 14 31 6 7 12 18 12 23 1
24 46 135 53 135 5 0 6 5 3 10 -4 6 13 68 36 138 24 70 44 133 46 140 14 57
64 216 74 235 5 10 7 22 4 27 -3 4 0 10 6 12 14 5 26 167 13 177 -5 3 -14 15
-20 26 -27 50 -148 72 -221 40z"/>
<path d="M1020 1813 c0 -4 -10 -8 -22 -9 -37 -1 -73 -11 -106 -28 -16 -8 -32
-13 -36 -11 -3 3 -4 3 -2 0 1 -3 -12 -21 -30 -40 -32 -35 -62 -105 -69 -167
-7 -52 -27 -132 -36 -144 -5 -6 -6 -14 -2 -17 3 -4 0 -13 -7 -22 -7 -8 -10
-15 -6 -15 4 0 -1 -14 -9 -31 -9 -17 -14 -37 -11 -44 2 -7 -4 -21 -15 -31 -10
-9 -17 -19 -14 -22 2 -2 -2 -20 -10 -38 -8 -19 -11 -34 -7 -34 4 0 2 -4 -5 -8
-10 -6 -98 -253 -108 -301 -5 -29 -34 -141 -45 -173 -5 -17 -5 -28 1 -28 6 0
6 -7 0 -19 -15 -27 -32 -269 -22 -318 5 -24 6 -43 4 -43 -8 0 56 -86 78 -105
24 -20 73 -40 119 -49 14 -2 30 -5 35 -7 37 -11 142 41 155 76 9 23 70 53 70
34 0 -6 5 -7 12 -3 7 4 31 7 54 5 38 -2 119 18 148 37 6 4 13 7 16 7 35 5 215
127 203 139 -3 3 4 6 17 6 13 0 21 3 17 6 -3 3 16 28 42 55 27 27 46 49 44 49
-3 0 7 15 21 33 15 17 30 37 34 42 10 12 77 127 81 137 2 4 5 17 8 28 3 11 9
20 14 20 5 0 8 3 8 8 -1 4 0 9 1 12 2 6 4 14 30 110 11 41 18 81 15 88 -2 6 1
12 6 12 6 0 9 9 6 20 -3 11 -2 20 1 20 12 0 14 158 2 179 -7 15 -8 21 0 21 8
0 8 6 0 20 -6 11 -8 20 -5 20 3 0 -2 17 -11 38 -9 20 -17 42 -18 47 -3 16 -35
74 -54 98 -86 111 -319 289 -398 303 -16 3 -33 9 -38 15 -6 5 -22 9 -37 9 -15
0 -39 4 -53 10 -17 6 -26 6 -26 -1 0 -6 -7 -6 -20 1 -11 6 -20 7 -20 3z m160
-505 c0 -5 7 -8 15 -8 8 0 15 -4 15 -8 0 -4 14 -16 30 -26 38 -22 105 -120 97
-140 -4 -9 -2 -18 3 -21 6 -4 10 -37 10 -75 0 -112 -55 -240 -142 -330 -56
-58 -196 -169 -245 -195 -21 -11 -42 -24 -46 -30 -5 -5 -6 6 -3 25 3 19 8 53
11 75 3 22 9 54 12 70 4 17 6 36 4 43 -1 8 3 20 10 28 9 11 8 14 -2 14 -9 0
-10 3 -4 8 11 8 11 9 28 92 5 30 13 57 17 60 3 3 6 12 6 20 0 8 3 22 7 30 3 8
13 42 23 75 22 75 22 76 27 100 3 11 13 49 22 85 9 36 18 70 20 75 1 6 8 24
14 42 l12 31 30 -16 c16 -10 29 -20 29 -24z"/>
</g>
</svg>
